HIERARCHY
ROOT Hips
{
	OFFSET 204.544800 91.059433 303.203186
	CHANNELS 6 Xposition Yposition Zposition Zrotation Yrotation Xrotation 
	JOINT LeftUpLeg
	{
		OFFSET 0.103457 1.857840 10.548497
		CHANNELS 3 Zrotation Yrotation Xrotation
		JOINT LeftLeg
		{
			OFFSET 43.499996 -0.000046 -0.000021
			CHANNELS 3 Zrotation Yrotation Xrotation
			JOINT LeftFoot
			{
				OFFSET 42.372200 0.000019 0.000010
				CHANNELS 3 Zrotation Yrotation Xrotation
				JOINT LeftToe
				{
					OFFSET 17.299992 -0.000004 -0.000006
					CHANNELS 3 Zrotation Yrotation Xrotation
					End Site
					{
						OFFSET 0.000000 0.000000 0.000000
					}
				}
			}
		}
	}
	JOINT RightUpLeg
	{
		OFFSET 0.103462 1.857830 -10.548500
		CHANNELS 3 Zrotation Yrotation Xrotation
		JOINT RightLeg
		{
			OFFSET 43.500050 -0.000008 0.000013
			CHANNELS 3 Zrotation Yrotation Xrotation
			JOINT RightFoot
			{
				OFFSET 42.372265 -0.000008 0.000010
				CHANNELS 3 Zrotation Yrotation Xrotation
				JOINT RightToe
				{
					OFFSET 17.299980 -0.000009 0.000011
					CHANNELS 3 Zrotation Yrotation Xrotation
					End Site
					{
						OFFSET 0.000000 0.000000 0.000000
					}
				}
			}
		}
	}
	JOINT Spine
	{
		OFFSET 6.901966 -2.603740 0.000004
		CHANNELS 3 Zrotation Yrotation Xrotation
		JOINT Spine1
		{
			OFFSET 12.588106 0.000010 -0.000001
			CHANNELS 3 Zrotation Yrotation Xrotation
			JOINT Spine2
			{
				OFFSET 12.343197 0.000001 -0.000010
				CHANNELS 3 Zrotation Yrotation Xrotation
				JOINT Neck
				{
					OFFSET 25.832893 -0.000006 0.000008
					CHANNELS 3 Zrotation Yrotation Xrotation
					JOINT Head
					{
						OFFSET 11.766615 -0.000006 -0.000000
						CHANNELS 3 Zrotation Yrotation Xrotation
						End Site
						{
							OFFSET 0.000000 0.000000 0.000000
						}
					}
				}
				JOINT LeftShoulder
				{
					OFFSET 19.745903 -1.480366 6.000110
					CHANNELS 3 Zrotation Yrotation Xrotation
					JOINT LeftArm
					{
						OFFSET 11.284130 -0.000010 -0.000024
						CHANNELS 3 Zrotation Yrotation Xrotation
						JOINT LeftForeArm
						{
							OFFSET 33.000046 0.000022 0.000031
							CHANNELS 3 Zrotation Yrotation Xrotation
							JOINT LeftHand
							{
								OFFSET 25.200022 0.000011 0.000002
								CHANNELS 3 Zrotation Yrotation Xrotation
								End Site
								{
									OFFSET 0.000000 0.000000 0.000000
								}
							}
						}
					}
				}
				JOINT RightShoulder
				{
					OFFSET 19.746103 -1.480371 -6.000066
					CHANNELS 3 Zrotation Yrotation Xrotation
					JOINT RightArm
					{
						OFFSET 11.284146 -0.000005 -0.000007
						CHANNELS 3 Zrotation Yrotation Xrotation
						JOINT RightForeArm
						{
							OFFSET 33.000076 0.000011 0.000008
							CHANNELS 3 Zrotation Yrotation Xrotation
							JOINT RightHand
							{
								OFFSET 25.199783 0.000146 0.000422
								CHANNELS 3 Zrotation Yrotation Xrotation
								End Site
								{
									OFFSET 0.000000 0.000000 0.000000
								}
							}
						}
					}
				}
			}
		}
	}
}
MOTION
Frames: 7
Frame Time: 0.033333
-286.180786 89.148987 -128.245193 90.965805 -4.521125 -12.541015 153.225541 -17.972502 172.138676 -66.921435 0.979176 -9.011408 73.699162 3.571637 -9.272120 21.454539 0.003098 0.000002 171.537387 -5.200393 -174.676487 -25.261304 -0.729737 -4.116719 93.197296 3.672211 6.944728 21.454557 -0.003106 -0.000018 6.219261 1.434743 -0.678057 2.409710 2.882888 -1.327250 2.091269 2.874955 -1.344645 11.674701 -1.699570 -24.963513 -26.897065 4.358263 -28.751896 -155.924941 -81.939123 -25.939897 -13.173870 65.986970 29.762027 -29.164119 -9.420405 0.852735 8.342157 -2.296195 -0.259351 -165.553417 73.519623 16.201724 0.532309 -58.009562 -24.058400 -32.565372 11.500639 -1.081835 8.184418 2.571488 -2.993436 
-287.049011 89.041649 -127.481300 91.189651 -4.749323 -13.941039 151.756039 -18.356902 173.281571 -64.602559 0.628648 -8.817026 75.878429 3.473885 -9.728414 21.454551 0.003091 -0.000001 171.756117 -4.874801 -175.524387 -25.364389 -0.670181 -4.560727 93.668347 4.046060 7.739015 21.454558 -0.003109 -0.000018 6.256075 1.535120 -0.678427 2.482369 3.084031 -1.325034 2.163853 3.076115 -1.343643 11.575114 -1.576618 -24.936293 -27.092567 4.173725 -28.639796 -156.742350 -82.170652 -25.107536 -14.254573 66.159275 29.401208 -29.207535 -9.547914 0.853934 8.335745 -2.321501 -0.476147 -164.952374 73.703581 16.817988 0.681544 -58.075896 -24.037719 -32.749347 11.538159 -1.088148 8.084275 2.743457 -2.992023 
-288.041504 88.899918 -126.602402 91.359852 -4.891293 -15.463014 150.932004 -18.367098 175.073103 -60.712431 0.710163 -7.641629 78.157138 2.762440 -9.946712 21.454550 0.003091 0.000000 171.912241 -4.445802 -176.368844 -25.701882 -0.738470 -5.017743 94.092522 4.352287 7.916223 21.454557 -0.003109 -0.000017 6.296199 1.597863 -0.684759 2.561853 3.210085 -1.335311 2.243302 3.202101 -1.354685 11.696252 -1.203059 -24.839766 -27.572188 3.936673 -28.435526 -156.748388 -82.414388 -25.096912 -15.340376 66.319825 28.905678 -29.149816 -9.594829 0.855351 8.455289 -2.570634 -0.823328 -165.481523 73.739767 16.274562 1.062904 -57.885478 -24.180514 -33.032936 11.639017 -1.100727 8.026817 2.919018 -3.043787 
-289.156708 88.711609 -125.620796 91.566247 -5.128562 -17.108031 150.766372 -18.202700 177.772735 -55.288370 1.056867 -5.421174 79.904279 1.105350 -10.862491 21.454558 0.003092 -0.000000 172.085701 -4.068208 -177.579796 -26.028652 -0.749841 -5.297619 94.476611 4.543305 8.135622 21.454558 -0.003108 -0.000018 6.335785 1.696293 -0.700888 2.639576 3.407720 -1.364349 2.320980 3.399555 -1.384922 11.827153 -1.130241 -24.614911 -27.985199 3.934512 -28.229645 -155.690952 -82.329003 -26.168797 -16.493220 66.327386 28.302615 -29.048224 -9.557973 0.857400 8.616814 -2.774092 -1.025410 -166.808997 73.834318 14.911321 1.442938 -57.514489 -24.355341 -33.253486 11.764727 -1.113628 8.007016 3.089053 -3.149282 
-290.391602 88.573097 -124.571198 91.749815 -5.344060 -19.090944 151.595639 -18.126601 -178.666342 -47.982424 1.099603 -1.341950 80.419330 -1.948391 -11.725872 21.454550 0.003092 0.000000 172.475732 -3.584108 -179.181584 -25.971026 -0.693362 -5.563712 94.812001 4.781981 8.817052 21.454558 -0.003108 -0.000019 6.385750 1.769871 -0.637193 2.740828 3.553960 -1.233742 2.422139 3.546586 -1.255204 11.895748 -0.977497 -24.362071 -28.305935 3.932931 -27.974981 -155.379263 -82.385728 -26.483140 -17.536830 66.496386 27.586559 -28.976019 -9.596092 0.860825 8.785741 -2.788042 -0.960168 -166.936093 73.640327 14.781325 1.120635 -56.853371 -24.099091 -33.215357 11.711752 -1.111780 7.953315 3.076817 -3.244685 
-291.886414 88.424850 -123.406601 91.795434 -5.558140 -21.567994 153.511507 -18.000704 -174.225435 -39.470700 1.036805 3.234391 80.272474 -5.325542 -12.180698 21.454551 0.003091 -0.000002 173.135706 -2.702807 179.015911 -25.725271 -0.320680 -6.117948 95.153804 5.214170 9.549392 21.454557 -0.003107 -0.000019 6.462385 1.835201 -0.514344 2.897604 3.682396 -0.983946 2.578829 3.676524 -1.006191 12.001828 -0.905816 -24.024989 -28.658753 3.899904 -27.628967 -155.430776 -82.333074 -26.432098 -18.111910 66.726481 27.188574 -28.991803 -9.693044 0.867454 8.748621 -2.662688 -0.825443 -166.949590 73.664861 14.767381 0.710445 -56.289440 -23.816936 -33.156450 11.660718 -1.106207 8.022172 3.030677 -3.281390 
-293.452209 88.578743 -122.230698 91.649985 -5.115909 -24.531005 156.517036 -17.200194 -167.420094 -30.950879 -0.559118 4.289647 78.986807 -6.140834 -12.011941 21.454551 0.003093 -0.000000 174.070431 -0.884198 177.306370 -24.486078 0.197695 -7.108243 94.981560 6.001194 10.316911 21.454557 -0.003111 -0.000017 6.506754 1.761011 -0.370592 2.991329 3.530791 -0.696685 2.672612 3.526650 -0.718024 12.013050 -0.980164 -23.730804 -28.699085 3.598677 -27.186607 -155.034120 -82.264472 -26.835129 -18.376274 67.100830 27.217498 -29.038471 -9.756236 0.872433 8.613244 -2.609701 -0.945612 -167.064419 73.864480 14.649105 0.274114 -55.842698 -23.604473 -33.186328 11.651081 -1.103444 8.052700 3.004259 -3.113103 
